<svg width="500" height="500" xmlns="http://www.w3.org/2000/svg" data-name="Capa 1"><g stroke="null"><path fill="#298393" d="M287.804 497.375V422.9c0-2.94 0-2.935 2.894-2.95.665 0 1.33-.045 1.996-.068 3.325.023 6.646.074 9.971.069l46.982-.069c2.225.023 4.45 0 6.67.092 1.105.046 1.463-.385 1.348-1.417a11.682 11.682 0 0 1 0-1.33q0-103.89.05-207.78c0-2.088-.403-2.693-2.61-2.684-21.649.096-43.303.027-64.952.115-2.023 0-2.39-.56-2.386-2.454q.097-37.153 0-74.306c0-1.977.427-2.56 2.5-2.555q72.407.097 144.818.05 0 183.797.041 367.588c0 1.702-.202 2.22-2.11 2.216q-72.608-.097-145.212-.042z" class="cls-1"/><path fill="#3bccab" d="M64.892 129.852c1.963-2.371 4.67-1.77 7.201-1.77h135.461c3.275 0 3.275 0 3.275 3.247 0 24.246-.027 48.491.05 72.737 0 2.137-.366 2.844-2.72 2.83-20.98-.11-41.964-.032-62.944-.12-2.11 0-2.5.634-2.5 2.588q.07 103.986 0 207.977c0 2.124.46 2.683 2.643 2.674 20.984-.092 41.964-.032 62.948-.096 1.954 0 2.592.39 2.587 2.5-.082 24.984-.055 49.995-.055 74.961q-71.93 0-143.873.055c-1.903 0-2.105-.514-2.105-2.215q.06-182.686.032-365.368z" class="cls-2"/><path fill="#298393" d="M435.076 84.021q-38.024 0-76.053.046c-1.835 0-2.294-.459-2.294-2.293q.106-39.584.046-79.168 38.268 0 76.53-.041c1.523 0 1.835.298 1.835 1.835q-.115 39.799-.064 79.621z" class="cls-1"/></g></svg>